<svg width="40" height="40" viewBox="0 0 40 40" fill="none" xmlns="http://www.w3.org/2000/svg">
<rect width="40" height="40" rx="10" fill="#333333"/>
<path d="M25.4485 18.6707L25.1868 20.9633C25.1425 21.3462 24.8453 21.6343 24.4927 21.6343H21.0893V31.2195C20.7304 31.2549 20.3667 31.273 19.9991 31.273C19.1769 31.273 18.3745 31.1833 17.5989 31.0125V21.6343H14.9813C14.741 21.6343 14.5449 21.4195 14.5449 21.1565V18.2877C14.5449 18.0247 14.741 17.8099 14.9813 17.8099H17.5989V13.5076C17.5989 10.8675 19.5524 8.72754 21.9629 8.72754H25.0168C25.2572 8.72754 25.4532 8.94231 25.4532 9.20538V12.0741C25.4532 12.3372 25.2572 12.552 25.0168 12.552H22.8349C21.8712 12.552 21.0901 13.4076 21.0901 14.4642V17.8108H24.7552C25.1758 17.8108 25.5007 18.2144 25.4485 18.6707Z" fill="white"/>
</svg>
