<svg width="40" height="40" viewBox="0 0 40 40" fill="none" xmlns="http://www.w3.org/2000/svg">
<rect width="40" height="40" rx="10" fill="#333333"/>
<path d="M26.4328 8.72754H14.857C11.8742 8.72754 9.45508 11.1466 9.45508 14.1294V25.7052C9.45508 28.6881 11.8742 31.1072 14.857 31.1072H26.4328C29.4156 31.1072 31.8348 28.6881 31.8348 25.7052V14.1294C31.8348 11.1466 29.4146 8.72754 26.4328 8.72754ZM29.9053 25.3198C29.9053 27.4501 28.1766 29.1787 26.0463 29.1787H15.2425C13.1122 29.1787 11.3835 27.4501 11.3835 25.3198V14.516C11.3835 12.3857 13.1122 10.657 15.2425 10.657H26.0463C28.1766 10.657 29.9053 12.3857 29.9053 14.516V25.3198Z" fill="white"/>
<path d="M20.6546 14.1289C17.4602 14.1289 14.8672 16.7219 14.8672 19.9163C14.8672 23.1106 17.4602 25.7036 20.6546 25.7036C23.8489 25.7036 26.442 23.1106 26.442 19.9163C26.443 16.7219 23.85 14.1289 20.6546 14.1289ZM20.6546 23.7752C18.5286 23.7752 16.7956 22.0422 16.7956 19.9163C16.7956 17.7903 18.5286 16.0573 20.6546 16.0573C22.7806 16.0573 24.5135 17.7903 24.5135 19.9163C24.5135 22.0422 22.7806 23.7752 20.6546 23.7752Z" fill="white"/>
<path d="M26.8294 14.9009C27.4686 14.9009 27.9868 14.3827 27.9868 13.7434C27.9868 13.1042 27.4686 12.5859 26.8294 12.5859C26.1901 12.5859 25.6719 13.1042 25.6719 13.7434C25.6719 14.3827 26.1901 14.9009 26.8294 14.9009Z" fill="white"/>
</svg>
