<svg width="82" height="82" viewBox="0 0 82 82" fill="none" xmlns="http://www.w3.org/2000/svg">
<path d="M41 82C32.9358 82 25.162 79.6704 18.4636 75.2534L4.37152 79.6318C3.80287 79.808 3.18467 79.6552 2.76335 79.2353C2.34341 78.8139 2.19058 78.1957 2.36681 77.6271L6.74659 63.535C2.32964 56.838 0 49.0642 0 41C0 30.0485 4.26412 19.7524 12.0089 12.0089C19.7524 4.26412 30.0485 0 41 0C51.9515 0 62.2476 4.26412 69.9911 12.0089C77.7345 19.7524 82 30.0485 82 41C82 51.9515 77.7359 62.2476 69.9911 69.9911C62.2476 77.7345 51.9515 82 41 82ZM18.7225 71.8939C19.0419 71.8939 19.36 71.9903 19.6285 72.1748C25.9344 76.5063 33.324 78.7961 41 78.7961C61.8415 78.7961 78.7974 61.8415 78.7974 40.9986C78.7974 20.1558 61.8415 3.20257 41 3.20257C20.1585 3.20257 3.20257 20.1585 3.20257 41C3.20257 48.676 5.49228 56.0656 9.82386 62.3715C10.1006 62.7763 10.1791 63.2844 10.0331 63.7539L6.33078 75.6692L18.2475 71.9669C18.4017 71.9187 18.5628 71.8939 18.7225 71.8939Z" fill="black"/>
<path d="M42.694 56.0537L32.6677 43.0135L32.5521 43.0713V60.5739H25.8867V21.7438C28.5523 21.686 30.6975 22.6718 31.7397 24.3516C32.5507 25.6844 32.5507 27.075 32.5507 28.8718V39.4199L32.6664 39.4777L42.1708 26.6124C44.6051 23.3093 47.5612 21.5703 50.9221 21.5703C52.3705 21.5703 54.6313 21.8016 55.9641 22.3813C53.5877 23.2501 50.2846 26.5545 48.0816 29.3936L38.982 41.2167L48.8926 53.271C51.1534 56.0523 54.4565 59.3567 56.8329 60.2255C55.5001 60.8052 52.9502 61.0365 51.5004 61.0365C48.1422 61.0365 45.2439 59.3567 42.694 56.0537Z" fill="black"/>
</svg>
