<svg width="114" height="34" viewBox="0 0 114 34" fill="none" xmlns="http://www.w3.org/2000/svg">
<rect x="0.5" y="0.5" width="113" height="33" rx="7.5" stroke="black"/>
<rect width="72" height="34" fill="black"/>
<path d="M42.5376 14.6172C42.4912 14.183 42.2957 13.8449 41.951 13.603C41.6096 13.361 41.1655 13.2401 40.6186 13.2401C40.2341 13.2401 39.9044 13.2981 39.6293 13.4141C39.3542 13.5301 39.1437 13.6875 38.9979 13.8864C38.852 14.0852 38.7775 14.3123 38.7741 14.5675C38.7741 14.7796 38.8222 14.9635 38.9183 15.1193C39.0178 15.2751 39.152 15.4077 39.321 15.517C39.4901 15.6231 39.6773 15.7126 39.8828 15.7855C40.0883 15.8584 40.2955 15.9197 40.5043 15.9695L41.4588 16.2081C41.8433 16.2976 42.2128 16.4186 42.5675 16.571C42.9254 16.7235 43.2453 16.9157 43.527 17.1477C43.812 17.3797 44.0374 17.6598 44.2031 17.9879C44.3688 18.3161 44.4517 18.7005 44.4517 19.1413C44.4517 19.7379 44.2992 20.2633 43.9943 20.7173C43.6894 21.1681 43.2486 21.5211 42.6719 21.7763C42.0985 22.0282 41.4041 22.1541 40.5888 22.1541C39.7966 22.1541 39.1089 22.0315 38.5256 21.7862C37.9455 21.541 37.4915 21.183 37.1634 20.7124C36.8385 20.2417 36.6629 19.6683 36.6364 18.9922H38.451C38.4775 19.3468 38.5869 19.6418 38.7791 19.8771C38.9714 20.1125 39.2216 20.2881 39.5298 20.4041C39.8414 20.5201 40.1894 20.5781 40.5739 20.5781C40.9749 20.5781 41.3262 20.5185 41.6278 20.3991C41.9328 20.2765 42.1714 20.1075 42.3438 19.892C42.5161 19.6733 42.6039 19.4181 42.6072 19.1264C42.6039 18.8613 42.526 18.6425 42.3736 18.4702C42.2211 18.2945 42.0073 18.1487 41.7322 18.0327C41.4605 17.9134 41.1423 17.8073 40.7777 17.7145L39.6193 17.4162C38.7808 17.2008 38.1179 16.8743 37.6307 16.4368C37.1468 15.996 36.9048 15.411 36.9048 14.6818C36.9048 14.0819 37.0672 13.5566 37.392 13.1058C37.7202 12.6551 38.166 12.3054 38.7294 12.0568C39.2929 11.8049 39.9309 11.679 40.6435 11.679C41.366 11.679 41.9991 11.8049 42.5426 12.0568C43.0895 12.3054 43.5187 12.6518 43.8303 13.0959C44.1418 13.5367 44.3026 14.0438 44.3125 14.6172H42.5376ZM49.8297 14.3636V15.7557H45.4398V14.3636H49.8297ZM46.5236 12.5341H48.3233V19.7031C48.3233 19.9451 48.3598 20.1307 48.4327 20.2599C48.5089 20.3859 48.6084 20.4721 48.731 20.5185C48.8536 20.5649 48.9895 20.5881 49.1387 20.5881C49.2514 20.5881 49.3541 20.5798 49.4469 20.5632C49.543 20.5466 49.6159 20.5317 49.6657 20.5185L49.9689 21.9254C49.8728 21.9586 49.7353 21.995 49.5563 22.0348C49.3806 22.0746 49.1652 22.0978 48.91 22.1044C48.4592 22.1177 48.0532 22.0497 47.6919 21.9006C47.3307 21.7481 47.044 21.5128 46.8319 21.1946C46.623 20.8764 46.5203 20.4787 46.5236 20.0014V12.5341ZM53.5323 22.1541C53.0484 22.1541 52.6126 22.0679 52.2248 21.8956C51.8403 21.7199 51.5354 21.4614 51.31 21.12C51.0879 20.7786 50.9769 20.3577 50.9769 19.8572C50.9769 19.4264 51.0565 19.0701 51.2156 18.7884C51.3746 18.5066 51.5917 18.2812 51.8668 18.1122C52.1419 17.9432 52.4518 17.8156 52.7965 17.7294C53.1445 17.6399 53.5041 17.5753 53.8754 17.5355C54.3228 17.4891 54.6857 17.4477 54.9641 17.4112C55.2425 17.3714 55.4447 17.3118 55.5707 17.2322C55.6999 17.1494 55.7646 17.0218 55.7646 16.8494V16.8196C55.7646 16.4451 55.6535 16.1551 55.4315 15.9496C55.2094 15.7441 54.8896 15.6413 54.4719 15.6413C54.0311 15.6413 53.6815 15.7375 53.4229 15.9297C53.1677 16.1219 52.9954 16.349 52.9059 16.6108L51.2255 16.3722C51.3581 15.9081 51.5768 15.5204 51.8817 15.2088C52.1867 14.8939 52.5595 14.6586 53.0004 14.5028C53.4412 14.3438 53.9284 14.2642 54.462 14.2642C54.8299 14.2642 55.1961 14.3073 55.5607 14.3935C55.9253 14.4796 56.2584 14.6222 56.56 14.821C56.8616 15.0166 57.1036 15.2834 57.2859 15.6214C57.4715 15.9595 57.5643 16.3821 57.5643 16.8892V22H55.8342V20.951H55.7745C55.6651 21.1631 55.511 21.362 55.3121 21.5476C55.1166 21.7299 54.8697 21.8774 54.5714 21.9901C54.2764 22.0994 53.93 22.1541 53.5323 22.1541ZM53.9996 20.8317C54.3609 20.8317 54.6741 20.7604 54.9393 20.6179C55.2044 20.4721 55.4083 20.2798 55.5508 20.0412C55.6966 19.8026 55.7695 19.5424 55.7695 19.2607V18.3608C55.7132 18.4072 55.6171 18.4503 55.4812 18.4901C55.3486 18.5298 55.1995 18.5646 55.0337 18.5945C54.868 18.6243 54.704 18.6508 54.5415 18.674C54.3791 18.6972 54.2383 18.7171 54.119 18.7337C53.8505 18.7701 53.6102 18.8298 53.3981 18.9126C53.186 18.9955 53.0186 19.1115 52.896 19.2607C52.7733 19.4065 52.712 19.5954 52.712 19.8274C52.712 20.1589 52.833 20.4091 53.0749 20.5781C53.3169 20.7472 53.6251 20.8317 53.9996 20.8317ZM59.3739 22V14.3636H61.119V15.6364H61.1985C61.3377 15.1955 61.5763 14.8558 61.9144 14.6172C62.2558 14.3752 62.6452 14.2543 63.0827 14.2543C63.1822 14.2543 63.2932 14.2592 63.4158 14.2692C63.5418 14.2758 63.6462 14.2874 63.729 14.304V15.9595C63.6528 15.933 63.5318 15.9098 63.3661 15.8899C63.2037 15.8667 63.0463 15.8551 62.8938 15.8551C62.5657 15.8551 62.2707 15.9264 62.0089 16.0689C61.7504 16.2081 61.5465 16.402 61.3974 16.6506C61.2482 16.8991 61.1737 17.1858 61.1737 17.5107V22H59.3739Z" fill="white"/>
<path fill-rule="evenodd" clip-rule="evenodd" d="M18 7C12.475 7 8 11.475 8 17C8 21.425 10.8625 25.1625 14.8375 26.4875C15.3375 26.575 15.525 26.275 15.525 26.0125C15.525 25.775 15.5125 24.9875 15.5125 24.15C13 24.6125 12.35 23.5375 12.15 22.975C12.0375 22.6875 11.55 21.8 11.125 21.5625C10.775 21.375 10.275 20.9125 11.1125 20.9C11.9 20.8875 12.4625 21.625 12.65 21.925C13.55 23.4375 14.9875 23.0125 15.5625 22.75C15.65 22.1 15.9125 21.6625 16.2 21.4125C13.975 21.1625 11.65 20.3 11.65 16.475C11.65 15.3875 12.0375 14.4875 12.675 13.7875C12.575 13.5375 12.225 12.5125 12.775 11.1375C12.775 11.1375 13.6125 10.875 15.525 12.1625C16.325 11.9375 17.175 11.825 18.025 11.825C18.875 11.825 19.725 11.9375 20.525 12.1625C22.4375 10.8625 23.275 11.1375 23.275 11.1375C23.825 12.5125 23.475 13.5375 23.375 13.7875C24.0125 14.4875 24.4 15.375 24.4 16.475C24.4 20.3125 22.0625 21.1625 19.8375 21.4125C20.2 21.725 20.5125 22.325 20.5125 23.2625C20.5125 24.6 20.5 25.675 20.5 26.0125C20.5 26.275 20.6875 26.5875 21.1875 26.4875C25.1375 25.1625 28 21.4125 28 17C28 11.475 23.525 7 18 7Z" fill="white"/>
<path d="M80.9048 22.5V21.1676L84.4396 17.7024C84.7777 17.361 85.0594 17.0578 85.2848 16.7926C85.5102 16.5275 85.6792 16.2706 85.7919 16.022C85.9046 15.7734 85.9609 15.5083 85.9609 15.2266C85.9609 14.9051 85.888 14.63 85.7422 14.4013C85.5964 14.1693 85.3958 13.9903 85.1406 13.8643C84.8854 13.7384 84.5954 13.6754 84.2706 13.6754C83.9358 13.6754 83.6425 13.745 83.3906 13.8842C83.1387 14.0201 82.9432 14.214 82.804 14.4659C82.6681 14.7178 82.6001 15.0178 82.6001 15.3658H80.8452C80.8452 14.7195 80.9927 14.1577 81.2876 13.6804C81.5826 13.2031 81.9886 12.8336 82.5057 12.5717C83.026 12.3099 83.6226 12.179 84.2955 12.179C84.9782 12.179 85.5781 12.3066 86.0952 12.5618C86.6122 12.817 87.0133 13.1667 87.2983 13.6108C87.5866 14.0549 87.7308 14.562 87.7308 15.1321C87.7308 15.5133 87.6579 15.8878 87.5121 16.2557C87.3662 16.6236 87.1094 17.0312 86.7415 17.4787C86.3769 17.9261 85.8648 18.468 85.2053 19.1044L83.4503 20.8892V20.9588H87.8849V22.5H80.9048ZM93.2543 22.6392C92.5384 22.6392 91.902 22.5166 91.3452 22.2713C90.7917 22.026 90.3542 21.6847 90.0327 21.2472C89.7112 20.8097 89.5405 20.3042 89.5206 19.7308H91.3899C91.4065 20.0059 91.4976 20.2462 91.6634 20.4517C91.8291 20.6539 92.0495 20.8113 92.3246 20.924C92.5997 21.0367 92.9079 21.093 93.2493 21.093C93.6139 21.093 93.937 21.0301 94.2188 20.9041C94.5005 20.7749 94.7209 20.5959 94.88 20.3672C95.0391 20.1385 95.117 19.875 95.1136 19.5767C95.117 19.2685 95.0374 18.9967 94.875 18.7614C94.7126 18.526 94.4773 18.3421 94.169 18.2095C93.8641 18.0769 93.4962 18.0107 93.0653 18.0107H92.1655V16.5888H93.0653C93.42 16.5888 93.7299 16.5275 93.995 16.4048C94.2635 16.2822 94.474 16.1098 94.6264 15.8878C94.7789 15.6624 94.8535 15.4022 94.8501 15.1072C94.8535 14.8189 94.7888 14.5687 94.6562 14.3565C94.527 14.1411 94.343 13.9737 94.1044 13.8544C93.8691 13.7351 93.5923 13.6754 93.2741 13.6754C92.9626 13.6754 92.6742 13.7318 92.4091 13.8445C92.1439 13.9571 91.9302 14.1179 91.7678 14.3267C91.6054 14.5322 91.5192 14.7775 91.5092 15.0625H89.7344C89.7476 14.4924 89.9117 13.992 90.2266 13.5611C90.5447 13.1269 90.969 12.7888 91.4993 12.5469C92.0296 12.3016 92.6245 12.179 93.2841 12.179C93.9635 12.179 94.5535 12.3066 95.054 12.5618C95.5578 12.8137 95.9472 13.1534 96.2223 13.581C96.4974 14.0085 96.6349 14.4808 96.6349 14.9979C96.6383 15.5713 96.4692 16.0518 96.1278 16.4396C95.7898 16.8274 95.3456 17.081 94.7955 17.2003V17.2798C95.5114 17.3793 96.0599 17.6444 96.4411 18.0753C96.8255 18.5028 97.0161 19.0348 97.0128 19.6712C97.0128 20.2412 96.8504 20.7517 96.5256 21.2024C96.2041 21.6499 95.7599 22.0012 95.1932 22.2564C94.6297 22.5116 93.9834 22.6392 93.2543 22.6392ZM100.38 20.1037L100.375 17.9311H100.663L103.407 14.8636H105.51L102.135 18.6222H101.762L100.38 20.1037ZM98.7392 22.5V12.3182H100.539V22.5H98.7392ZM103.532 22.5L101.046 19.0249L102.259 17.7571L105.684 22.5H103.532Z" fill="black"/>
</svg>
