<svg width="133" height="41" viewBox="0 0 133 41" fill="none" xmlns="http://www.w3.org/2000/svg">
<g filter="url(#filter0_dddd_91_65)">
<mask id="path-1-inside-1_91_65" fill="white">
<path fill-rule="evenodd" clip-rule="evenodd" d="M62.1313 4L64.571 1.58009C65.3507 0.806718 66.6082 0.806716 67.3879 1.58008L69.8276 4H128C130.209 4 132 5.79086 132 8V30C132 32.2091 130.209 34 128 34H5C2.79086 34 1 32.2091 1 30V8C1 5.79086 2.79086 4 5 4H62.1313Z"/>
</mask>
<path fill-rule="evenodd" clip-rule="evenodd" d="M62.1313 4L64.571 1.58009C65.3507 0.806718 66.6082 0.806716 67.3879 1.58008L69.8276 4H128C130.209 4 132 5.79086 132 8V30C132 32.2091 130.209 34 128 34H5C2.79086 34 1 32.2091 1 30V8C1 5.79086 2.79086 4 5 4H62.1313Z" fill="white"/>
<path d="M64.571 1.58009L63.8668 0.870098L63.8668 0.870099L64.571 1.58009ZM62.1313 4V5H62.5431L62.8355 4.70999L62.1313 4ZM67.3879 1.58008L66.6837 2.29007V2.29007L67.3879 1.58008ZM69.8276 4L69.1234 4.70999L69.4158 5H69.8276V4ZM63.8668 0.870099L61.427 3.29001L62.8355 4.70999L65.2752 2.29007L63.8668 0.870099ZM68.0921 0.8701C66.9225 -0.289959 65.0364 -0.289949 63.8668 0.870098L65.2752 2.29007C65.6651 1.90339 66.2938 1.90339 66.6837 2.29007L68.0921 0.8701ZM70.5318 3.29001L68.0921 0.870097L66.6837 2.29007L69.1234 4.70999L70.5318 3.29001ZM69.8276 5H128V3H69.8276V5ZM128 5C129.657 5 131 6.34315 131 8H133C133 5.23858 130.761 3 128 3V5ZM131 8V30H133V8H131ZM131 30C131 31.6569 129.657 33 128 33V35C130.761 35 133 32.7614 133 30H131ZM128 33H5V35H128V33ZM5 33C3.34314 33 2 31.6569 2 30H0C0 32.7614 2.23857 35 5 35V33ZM2 30V8H0V30H2ZM2 8C2 6.34315 3.34315 5 5 5V3C2.23858 3 0 5.23858 0 8H2ZM5 5H62.1313V3H5V5Z" fill="#EBEBEB" mask="url(#path-1-inside-1_91_65)"/>
</g>
<path d="M17.0625 19.9141V23.7148C16.9212 23.9017 16.7002 24.1068 16.3994 24.3301C16.1032 24.5488 15.709 24.738 15.2168 24.8975C14.7246 25.057 14.1117 25.1367 13.3779 25.1367C12.7536 25.1367 12.1816 25.0319 11.6621 24.8223C11.1426 24.6081 10.6937 24.2959 10.3154 23.8857C9.94173 23.4756 9.65234 22.9766 9.44727 22.3887C9.24219 21.7962 9.13965 21.1217 9.13965 20.3652V19.6748C9.13965 18.9229 9.23307 18.2529 9.41992 17.665C9.61133 17.0726 9.88477 16.5713 10.2402 16.1611C10.5957 15.751 11.0241 15.4411 11.5254 15.2314C12.0312 15.0173 12.6032 14.9102 13.2412 14.9102C14.057 14.9102 14.7314 15.0469 15.2646 15.3203C15.8024 15.5892 16.2171 15.9629 16.5088 16.4414C16.8005 16.9199 16.985 17.4668 17.0625 18.082H15.3809C15.3262 17.7357 15.2191 17.4258 15.0596 17.1523C14.9046 16.8789 14.6813 16.6647 14.3896 16.5098C14.1025 16.3503 13.7288 16.2705 13.2686 16.2705C12.8721 16.2705 12.5234 16.3457 12.2227 16.4961C11.9219 16.6465 11.6712 16.8675 11.4707 17.1592C11.2747 17.4508 11.1266 17.8063 11.0264 18.2256C10.9261 18.6449 10.876 19.1234 10.876 19.6611V20.3652C10.876 20.9121 10.9329 21.3975 11.0469 21.8213C11.1654 22.2451 11.334 22.6029 11.5527 22.8945C11.776 23.1862 12.0472 23.4072 12.3662 23.5576C12.6852 23.7035 13.0452 23.7764 13.4463 23.7764C13.8382 23.7764 14.1595 23.7445 14.4102 23.6807C14.6608 23.6123 14.859 23.5326 15.0049 23.4414C15.1553 23.3457 15.2715 23.2546 15.3535 23.168V21.1924H13.2822V19.9141H17.0625ZM22.0596 25.1367C21.5127 25.1367 21.0182 25.0479 20.5762 24.8701C20.1387 24.6878 19.765 24.4349 19.4551 24.1113C19.1497 23.7878 18.915 23.4072 18.751 22.9697C18.5869 22.5322 18.5049 22.0605 18.5049 21.5547V21.2812C18.5049 20.7025 18.5892 20.1784 18.7578 19.709C18.9264 19.2396 19.1611 18.8385 19.4619 18.5059C19.7627 18.1686 20.1182 17.9111 20.5283 17.7334C20.9385 17.5557 21.3828 17.4668 21.8613 17.4668C22.39 17.4668 22.8525 17.5557 23.249 17.7334C23.6455 17.9111 23.9736 18.1618 24.2334 18.4854C24.4977 18.8044 24.6937 19.1849 24.8213 19.627C24.9535 20.069 25.0195 20.5566 25.0195 21.0898V21.7939H19.3047V20.6113H23.3926V20.4814C23.3835 20.1852 23.3242 19.9072 23.2148 19.6475C23.11 19.3877 22.9482 19.1781 22.7295 19.0186C22.5107 18.859 22.2191 18.7793 21.8545 18.7793C21.5811 18.7793 21.3372 18.8385 21.123 18.957C20.9134 19.071 20.738 19.2373 20.5967 19.4561C20.4554 19.6748 20.346 19.9391 20.2686 20.249C20.1956 20.5544 20.1592 20.8984 20.1592 21.2812V21.5547C20.1592 21.8783 20.2025 22.179 20.2891 22.457C20.3802 22.7305 20.5124 22.9697 20.6855 23.1748C20.8587 23.3799 21.0684 23.5417 21.3145 23.6602C21.5605 23.7741 21.8408 23.8311 22.1553 23.8311C22.5518 23.8311 22.9049 23.7513 23.2148 23.5918C23.5247 23.4323 23.7936 23.2067 24.0215 22.915L24.8896 23.7559C24.7301 23.9883 24.5228 24.2116 24.2676 24.4258C24.0124 24.6354 23.7002 24.8063 23.3311 24.9385C22.9665 25.0706 22.5426 25.1367 22.0596 25.1367ZM29.6953 17.6035V18.8066H25.5254V17.6035H29.6953ZM26.7285 15.792H28.376V22.9561C28.376 23.1839 28.4079 23.3594 28.4717 23.4824C28.54 23.6009 28.6335 23.6807 28.752 23.7217C28.8704 23.7627 29.0094 23.7832 29.1689 23.7832C29.2829 23.7832 29.3923 23.7764 29.4971 23.7627C29.6019 23.749 29.6862 23.7354 29.75 23.7217L29.7568 24.9795C29.6201 25.0205 29.4606 25.057 29.2783 25.0889C29.1006 25.1208 28.8955 25.1367 28.6631 25.1367C28.2848 25.1367 27.9499 25.0706 27.6582 24.9385C27.3665 24.8018 27.1387 24.5807 26.9746 24.2754C26.8105 23.9701 26.7285 23.5645 26.7285 23.0586V15.792ZM36.292 19.2783H37.2764C37.6592 19.2783 37.9759 19.2122 38.2266 19.0801C38.4818 18.9479 38.6709 18.7656 38.7939 18.5332C38.917 18.3008 38.9785 18.0342 38.9785 17.7334C38.9785 17.4189 38.9215 17.1501 38.8076 16.9268C38.6982 16.6989 38.5296 16.5234 38.3018 16.4004C38.0785 16.2773 37.7936 16.2158 37.4473 16.2158C37.1556 16.2158 36.8913 16.2751 36.6543 16.3936C36.4219 16.5075 36.2373 16.6715 36.1006 16.8857C35.9639 17.0954 35.8955 17.346 35.8955 17.6377H34.2412C34.2412 17.109 34.3802 16.6396 34.6582 16.2295C34.9362 15.8193 35.3145 15.498 35.793 15.2656C36.276 15.0286 36.8184 14.9102 37.4199 14.9102C38.0625 14.9102 38.623 15.0173 39.1016 15.2314C39.5846 15.4411 39.9606 15.7555 40.2295 16.1748C40.4984 16.5941 40.6328 17.1136 40.6328 17.7334C40.6328 18.016 40.5667 18.3031 40.4346 18.5947C40.3024 18.8864 40.1064 19.153 39.8467 19.3945C39.5869 19.6315 39.2633 19.8252 38.876 19.9756C38.4886 20.1214 38.0397 20.1943 37.5293 20.1943H36.292V19.2783ZM36.292 20.5635V19.6611H37.5293C38.1126 19.6611 38.6094 19.7295 39.0195 19.8662C39.4342 20.0029 39.7715 20.1921 40.0312 20.4336C40.291 20.6706 40.4801 20.9417 40.5986 21.2471C40.7217 21.5524 40.7832 21.876 40.7832 22.2178C40.7832 22.6826 40.6989 23.0973 40.5303 23.4619C40.3662 23.8219 40.1315 24.1273 39.8262 24.3779C39.5208 24.6286 39.1631 24.8177 38.7529 24.9453C38.3473 25.0729 37.9053 25.1367 37.4268 25.1367C36.9984 25.1367 36.5882 25.0775 36.1963 24.959C35.8044 24.8405 35.4535 24.665 35.1436 24.4326C34.8337 24.1956 34.5876 23.9017 34.4053 23.5508C34.2275 23.1953 34.1387 22.7852 34.1387 22.3203H35.7861C35.7861 22.6165 35.8545 22.8786 35.9912 23.1064C36.1325 23.3298 36.3285 23.5052 36.5791 23.6328C36.8343 23.7604 37.126 23.8242 37.4541 23.8242C37.8005 23.8242 38.099 23.7627 38.3496 23.6396C38.6003 23.5166 38.7917 23.3343 38.9238 23.0928C39.0605 22.8512 39.1289 22.5596 39.1289 22.2178C39.1289 21.8304 39.0537 21.516 38.9033 21.2744C38.7529 21.0329 38.5387 20.8551 38.2607 20.7412C37.9827 20.6227 37.6546 20.5635 37.2764 20.5635H36.292ZM47.5439 19.1074V25H45.8965V17.6035H47.4482L47.5439 19.1074ZM47.2773 21.0283L46.7168 21.0215C46.7168 20.5111 46.7806 20.0394 46.9082 19.6064C47.0358 19.1735 47.2227 18.7975 47.4688 18.4785C47.7148 18.1549 48.0202 17.9066 48.3848 17.7334C48.7539 17.5557 49.18 17.4668 49.6631 17.4668C50.0003 17.4668 50.3079 17.5169 50.5859 17.6172C50.8685 17.7129 51.1123 17.8656 51.3174 18.0752C51.527 18.2848 51.6865 18.5537 51.7959 18.8818C51.9098 19.21 51.9668 19.6064 51.9668 20.0713V25H50.3193V20.2148C50.3193 19.8548 50.2646 19.5723 50.1553 19.3672C50.0505 19.1621 49.8978 19.0163 49.6973 18.9297C49.5013 18.8385 49.2666 18.793 48.9932 18.793C48.6833 18.793 48.4189 18.8522 48.2002 18.9707C47.986 19.0892 47.8105 19.251 47.6738 19.4561C47.5371 19.6611 47.4368 19.8981 47.373 20.167C47.3092 20.4359 47.2773 20.723 47.2773 21.0283ZM51.8643 20.5908L51.0918 20.7617C51.0918 20.3151 51.1533 19.8936 51.2764 19.4971C51.404 19.096 51.5885 18.7451 51.8301 18.4443C52.0762 18.139 52.3792 17.8997 52.7393 17.7266C53.0993 17.5534 53.5117 17.4668 53.9766 17.4668C54.3548 17.4668 54.6921 17.5192 54.9883 17.624C55.2891 17.7243 55.5443 17.8838 55.7539 18.1025C55.9635 18.3213 56.123 18.6061 56.2324 18.957C56.3418 19.3034 56.3965 19.7227 56.3965 20.2148V25H54.7422V20.208C54.7422 19.8343 54.6875 19.5449 54.5781 19.3398C54.4733 19.1348 54.3229 18.9935 54.127 18.916C53.931 18.834 53.6963 18.793 53.4229 18.793C53.1676 18.793 52.9421 18.8408 52.7461 18.9365C52.5547 19.0277 52.3929 19.1576 52.2607 19.3262C52.1286 19.4902 52.0283 19.6794 51.96 19.8936C51.8962 20.1077 51.8643 20.3402 51.8643 20.5908ZM57.7773 21.3838V21.2266C57.7773 20.6934 57.8548 20.1989 58.0098 19.7432C58.1647 19.2829 58.388 18.8841 58.6797 18.5469C58.9759 18.2051 59.3359 17.9408 59.7598 17.7539C60.1882 17.5625 60.6712 17.4668 61.209 17.4668C61.7513 17.4668 62.2344 17.5625 62.6582 17.7539C63.0866 17.9408 63.4489 18.2051 63.7451 18.5469C64.0413 18.8841 64.2669 19.2829 64.4219 19.7432C64.5768 20.1989 64.6543 20.6934 64.6543 21.2266V21.3838C64.6543 21.917 64.5768 22.4115 64.4219 22.8672C64.2669 23.3229 64.0413 23.7217 63.7451 24.0635C63.4489 24.4007 63.0889 24.665 62.665 24.8564C62.2412 25.0433 61.7604 25.1367 61.2227 25.1367C60.6803 25.1367 60.195 25.0433 59.7666 24.8564C59.3428 24.665 58.9827 24.4007 58.6865 24.0635C58.3903 23.7217 58.1647 23.3229 58.0098 22.8672C57.8548 22.4115 57.7773 21.917 57.7773 21.3838ZM59.4248 21.2266V21.3838C59.4248 21.7165 59.459 22.0309 59.5273 22.3271C59.5957 22.6234 59.7028 22.8831 59.8486 23.1064C59.9945 23.3298 60.1813 23.5052 60.4092 23.6328C60.637 23.7604 60.9082 23.8242 61.2227 23.8242C61.528 23.8242 61.7923 23.7604 62.0156 23.6328C62.2435 23.5052 62.4303 23.3298 62.5762 23.1064C62.722 22.8831 62.8291 22.6234 62.8975 22.3271C62.9704 22.0309 63.0068 21.7165 63.0068 21.3838V21.2266C63.0068 20.8984 62.9704 20.5885 62.8975 20.2969C62.8291 20.0007 62.7197 19.7386 62.5693 19.5107C62.4235 19.2829 62.2367 19.1051 62.0088 18.9775C61.7855 18.8454 61.5189 18.7793 61.209 18.7793C60.8991 18.7793 60.6302 18.8454 60.4023 18.9775C60.179 19.1051 59.9945 19.2829 59.8486 19.5107C59.7028 19.7386 59.5957 20.0007 59.5273 20.2969C59.459 20.5885 59.4248 20.8984 59.4248 21.2266ZM67.6689 19.1826V25H66.0215V17.6035H67.5732L67.6689 19.1826ZM67.375 21.0283L66.8418 21.0215C66.8464 20.4974 66.9193 20.0166 67.0605 19.5791C67.2064 19.1416 67.4069 18.7656 67.6621 18.4512C67.9219 18.1367 68.2318 17.8952 68.5918 17.7266C68.9518 17.5534 69.3529 17.4668 69.7949 17.4668C70.1504 17.4668 70.4717 17.5169 70.7588 17.6172C71.0505 17.7129 71.2988 17.8701 71.5039 18.0889C71.7135 18.3076 71.873 18.5924 71.9824 18.9434C72.0918 19.2897 72.1465 19.7158 72.1465 20.2217V25H70.4922V20.2148C70.4922 19.8594 70.4398 19.5791 70.335 19.374C70.2347 19.1644 70.0866 19.0163 69.8906 18.9297C69.6992 18.8385 69.46 18.793 69.1729 18.793C68.8903 18.793 68.6374 18.8522 68.4141 18.9707C68.1908 19.0892 68.0016 19.251 67.8467 19.4561C67.6963 19.6611 67.5801 19.8981 67.498 20.167C67.416 20.4359 67.375 20.723 67.375 21.0283ZM77.2188 17.6035V18.8066H73.0488V17.6035H77.2188ZM74.252 15.792H75.8994V22.9561C75.8994 23.1839 75.9313 23.3594 75.9951 23.4824C76.0635 23.6009 76.1569 23.6807 76.2754 23.7217C76.3939 23.7627 76.5329 23.7832 76.6924 23.7832C76.8063 23.7832 76.9157 23.7764 77.0205 23.7627C77.1253 23.749 77.2096 23.7354 77.2734 23.7217L77.2803 24.9795C77.1436 25.0205 76.984 25.057 76.8018 25.0889C76.624 25.1208 76.4189 25.1367 76.1865 25.1367C75.8083 25.1367 75.4733 25.0706 75.1816 24.9385C74.89 24.8018 74.6621 24.5807 74.498 24.2754C74.334 23.9701 74.252 23.5645 74.252 23.0586V15.792ZM80.1172 14.5V25H78.4766V14.5H80.1172ZM79.8301 21.0283L79.2969 21.0215C79.3014 20.5111 79.3721 20.0394 79.5088 19.6064C79.6501 19.1735 79.846 18.7975 80.0967 18.4785C80.3519 18.1549 80.6572 17.9066 81.0127 17.7334C81.3682 17.5557 81.7624 17.4668 82.1953 17.4668C82.5599 17.4668 82.888 17.5169 83.1797 17.6172C83.4759 17.7174 83.7311 17.8792 83.9453 18.1025C84.1595 18.3213 84.3213 18.6084 84.4307 18.9639C84.5446 19.3148 84.6016 19.7432 84.6016 20.249V25H82.9473V20.2354C82.9473 19.8799 82.8949 19.5973 82.79 19.3877C82.6898 19.1781 82.5417 19.0277 82.3457 18.9365C82.1497 18.8408 81.9105 18.793 81.6279 18.793C81.3317 18.793 81.0697 18.8522 80.8418 18.9707C80.6185 19.0892 80.4316 19.251 80.2812 19.4561C80.1309 19.6611 80.0169 19.8981 79.9395 20.167C79.8665 20.4359 79.8301 20.723 79.8301 21.0283ZM90.4189 22.9971C90.4189 22.833 90.3779 22.6849 90.2959 22.5527C90.2139 22.416 90.0566 22.293 89.8242 22.1836C89.5964 22.0742 89.2591 21.974 88.8125 21.8828C88.4206 21.7962 88.0605 21.6937 87.7324 21.5752C87.4089 21.4521 87.1309 21.304 86.8984 21.1309C86.666 20.9577 86.486 20.7526 86.3584 20.5156C86.2308 20.2786 86.167 20.0052 86.167 19.6953C86.167 19.3945 86.2331 19.1097 86.3652 18.8408C86.4974 18.5719 86.6865 18.335 86.9326 18.1299C87.1787 17.9248 87.4772 17.763 87.8281 17.6445C88.1836 17.526 88.5801 17.4668 89.0176 17.4668C89.6374 17.4668 90.1683 17.5716 90.6104 17.7812C91.057 17.9863 91.3988 18.2666 91.6357 18.6221C91.8727 18.973 91.9912 19.3695 91.9912 19.8115H90.3438C90.3438 19.6156 90.2936 19.4333 90.1934 19.2646C90.0977 19.0915 89.9518 18.9525 89.7559 18.8477C89.5599 18.7383 89.3138 18.6836 89.0176 18.6836C88.735 18.6836 88.5003 18.7292 88.3135 18.8203C88.1312 18.9069 87.9945 19.0208 87.9033 19.1621C87.8167 19.3034 87.7734 19.4583 87.7734 19.627C87.7734 19.75 87.7962 19.8617 87.8418 19.9619C87.8919 20.0576 87.974 20.1465 88.0879 20.2285C88.2018 20.306 88.3568 20.3789 88.5527 20.4473C88.7533 20.5156 89.0039 20.5817 89.3047 20.6455C89.8698 20.764 90.3551 20.9167 90.7607 21.1035C91.1709 21.2858 91.4854 21.5228 91.7041 21.8145C91.9229 22.1016 92.0322 22.4661 92.0322 22.9082C92.0322 23.2363 91.9616 23.5371 91.8203 23.8105C91.6836 24.0794 91.4831 24.3141 91.2188 24.5146C90.9544 24.7106 90.6377 24.8633 90.2686 24.9727C89.904 25.082 89.4938 25.1367 89.0381 25.1367C88.3682 25.1367 87.8008 25.0182 87.3359 24.7812C86.8711 24.5397 86.5179 24.2321 86.2764 23.8584C86.0394 23.4801 85.9209 23.0882 85.9209 22.6826H87.5137C87.5319 22.988 87.6162 23.2318 87.7666 23.4141C87.9215 23.5918 88.113 23.7217 88.3408 23.8037C88.5732 23.8812 88.8125 23.9199 89.0586 23.9199C89.3548 23.9199 89.6032 23.8812 89.8037 23.8037C90.0042 23.7217 90.1569 23.6123 90.2617 23.4756C90.3665 23.3343 90.4189 23.1748 90.4189 22.9971ZM99.1895 25H97.542V16.8926C97.542 16.3411 97.6445 15.8786 97.8496 15.5049C98.0592 15.1266 98.3577 14.8418 98.7451 14.6504C99.1325 14.4544 99.5905 14.3564 100.119 14.3564C100.283 14.3564 100.445 14.3678 100.604 14.3906C100.764 14.4089 100.919 14.4385 101.069 14.4795L101.028 15.751C100.937 15.7282 100.837 15.7122 100.728 15.7031C100.623 15.694 100.509 15.6895 100.386 15.6895C100.135 15.6895 99.9186 15.7373 99.7363 15.833C99.5586 15.9242 99.4219 16.0586 99.3262 16.2363C99.235 16.4141 99.1895 16.6328 99.1895 16.8926V25ZM100.714 17.6035V18.8066H96.4072V17.6035H100.714ZM103.564 19.0117V25H101.917V17.6035H103.489L103.564 19.0117ZM105.827 17.5557L105.813 19.0869C105.713 19.0687 105.604 19.055 105.485 19.0459C105.371 19.0368 105.257 19.0322 105.144 19.0322C104.861 19.0322 104.613 19.0732 104.398 19.1553C104.184 19.2327 104.004 19.3467 103.858 19.4971C103.717 19.6429 103.608 19.8206 103.53 20.0303C103.453 20.2399 103.407 20.4746 103.394 20.7344L103.018 20.7617C103.018 20.2969 103.063 19.8662 103.154 19.4697C103.245 19.0732 103.382 18.7246 103.564 18.4238C103.751 18.123 103.984 17.8883 104.262 17.7197C104.544 17.5511 104.87 17.4668 105.239 17.4668C105.34 17.4668 105.447 17.4759 105.561 17.4941C105.679 17.5124 105.768 17.5329 105.827 17.5557ZM109.983 25.1367C109.437 25.1367 108.942 25.0479 108.5 24.8701C108.062 24.6878 107.689 24.4349 107.379 24.1113C107.074 23.7878 106.839 23.4072 106.675 22.9697C106.511 22.5322 106.429 22.0605 106.429 21.5547V21.2812C106.429 20.7025 106.513 20.1784 106.682 19.709C106.85 19.2396 107.085 18.8385 107.386 18.5059C107.687 18.1686 108.042 17.9111 108.452 17.7334C108.862 17.5557 109.307 17.4668 109.785 17.4668C110.314 17.4668 110.776 17.5557 111.173 17.7334C111.569 17.9111 111.897 18.1618 112.157 18.4854C112.422 18.8044 112.618 19.1849 112.745 19.627C112.877 20.069 112.943 20.5566 112.943 21.0898V21.7939H107.229V20.6113H111.316V20.4814C111.307 20.1852 111.248 19.9072 111.139 19.6475C111.034 19.3877 110.872 19.1781 110.653 19.0186C110.435 18.859 110.143 18.7793 109.778 18.7793C109.505 18.7793 109.261 18.8385 109.047 18.957C108.837 19.071 108.662 19.2373 108.521 19.4561C108.379 19.6748 108.27 19.9391 108.192 20.249C108.119 20.5544 108.083 20.8984 108.083 21.2812V21.5547C108.083 21.8783 108.126 22.179 108.213 22.457C108.304 22.7305 108.436 22.9697 108.609 23.1748C108.783 23.3799 108.992 23.5417 109.238 23.6602C109.484 23.7741 109.765 23.8311 110.079 23.8311C110.476 23.8311 110.829 23.7513 111.139 23.5918C111.449 23.4323 111.717 23.2067 111.945 22.915L112.813 23.7559C112.654 23.9883 112.447 24.2116 112.191 24.4258C111.936 24.6354 111.624 24.8063 111.255 24.9385C110.89 25.0706 110.466 25.1367 109.983 25.1367ZM117.489 25.1367C116.942 25.1367 116.448 25.0479 116.006 24.8701C115.568 24.6878 115.195 24.4349 114.885 24.1113C114.579 23.7878 114.345 23.4072 114.181 22.9697C114.017 22.5322 113.935 22.0605 113.935 21.5547V21.2812C113.935 20.7025 114.019 20.1784 114.188 19.709C114.356 19.2396 114.591 18.8385 114.892 18.5059C115.192 18.1686 115.548 17.9111 115.958 17.7334C116.368 17.5557 116.812 17.4668 117.291 17.4668C117.82 17.4668 118.282 17.5557 118.679 17.7334C119.075 17.9111 119.403 18.1618 119.663 18.4854C119.927 18.8044 120.123 19.1849 120.251 19.627C120.383 20.069 120.449 20.5566 120.449 21.0898V21.7939H114.734V20.6113H118.822V20.4814C118.813 20.1852 118.754 19.9072 118.645 19.6475C118.54 19.3877 118.378 19.1781 118.159 19.0186C117.94 18.859 117.649 18.7793 117.284 18.7793C117.011 18.7793 116.767 18.8385 116.553 18.957C116.343 19.071 116.168 19.2373 116.026 19.4561C115.885 19.6748 115.776 19.9391 115.698 20.249C115.625 20.5544 115.589 20.8984 115.589 21.2812V21.5547C115.589 21.8783 115.632 22.179 115.719 22.457C115.81 22.7305 115.942 22.9697 116.115 23.1748C116.288 23.3799 116.498 23.5417 116.744 23.6602C116.99 23.7741 117.271 23.8311 117.585 23.8311C117.981 23.8311 118.335 23.7513 118.645 23.5918C118.954 23.4323 119.223 23.2067 119.451 22.915L120.319 23.7559C120.16 23.9883 119.952 24.2116 119.697 24.4258C119.442 24.6354 119.13 24.8063 118.761 24.9385C118.396 25.0706 117.972 25.1367 117.489 25.1367ZM123.635 15.0469L123.471 22.0674H122.062L121.892 15.0469H123.635ZM121.844 24.2207C121.844 23.9701 121.926 23.7604 122.09 23.5918C122.258 23.4186 122.491 23.332 122.787 23.332C123.079 23.332 123.309 23.4186 123.478 23.5918C123.646 23.7604 123.73 23.9701 123.73 24.2207C123.73 24.4622 123.646 24.6696 123.478 24.8428C123.309 25.0114 123.079 25.0957 122.787 25.0957C122.491 25.0957 122.258 25.0114 122.09 24.8428C121.926 24.6696 121.844 24.4622 121.844 24.2207Z" fill="#666666"/>
<defs>
<filter id="filter0_dddd_91_65" x="0" y="0" width="133" height="41" filterUnits="userSpaceOnUse" color-interpolation-filters="sRGB">
<feFlood flood-opacity="0" result="BackgroundImageFix"/>
<feColorMatrix in="SourceAlpha" type="matrix" values="0 0 0 0 0 0 0 0 0 0 0 0 0 0 0 0 0 0 127 0" result="hardAlpha"/>
<feMorphology radius="1" operator="dilate" in="SourceAlpha" result="effect1_dropShadow_91_65"/>
<feOffset/>
<feComposite in2="hardAlpha" operator="out"/>
<feColorMatrix type="matrix" values="0 0 0 0 0 0 0 0 0 0 0 0 0 0 0 0 0 0 0.04 0"/>
<feBlend mode="normal" in2="BackgroundImageFix" result="effect1_dropShadow_91_65"/>
<feColorMatrix in="SourceAlpha" type="matrix" values="0 0 0 0 0 0 0 0 0 0 0 0 0 0 0 0 0 0 127 0" result="hardAlpha"/>
<feMorphology radius="0.5" operator="erode" in="SourceAlpha" result="effect2_dropShadow_91_65"/>
<feOffset dy="1"/>
<feGaussianBlur stdDeviation="0.5"/>
<feComposite in2="hardAlpha" operator="out"/>
<feColorMatrix type="matrix" values="0 0 0 0 0 0 0 0 0 0 0 0 0 0 0 0 0 0 0.04 0"/>
<feBlend mode="normal" in2="effect1_dropShadow_91_65" result="effect2_dropShadow_91_65"/>
<feColorMatrix in="SourceAlpha" type="matrix" values="0 0 0 0 0 0 0 0 0 0 0 0 0 0 0 0 0 0 127 0" result="hardAlpha"/>
<feMorphology radius="1.5" operator="erode" in="SourceAlpha" result="effect3_dropShadow_91_65"/>
<feOffset dy="3"/>
<feGaussianBlur stdDeviation="1"/>
<feComposite in2="hardAlpha" operator="out"/>
<feColorMatrix type="matrix" values="0 0 0 0 0 0 0 0 0 0 0 0 0 0 0 0 0 0 0.04 0"/>
<feBlend mode="normal" in2="effect2_dropShadow_91_65" result="effect3_dropShadow_91_65"/>
<feColorMatrix in="SourceAlpha" type="matrix" values="0 0 0 0 0 0 0 0 0 0 0 0 0 0 0 0 0 0 127 0" result="hardAlpha"/>
<feMorphology radius="3" operator="erode" in="SourceAlpha" result="effect4_dropShadow_91_65"/>
<feOffset dy="6"/>
<feGaussianBlur stdDeviation="2"/>
<feComposite in2="hardAlpha" operator="out"/>
<feColorMatrix type="matrix" values="0 0 0 0 0 0 0 0 0 0 0 0 0 0 0 0 0 0 0.04 0"/>
<feBlend mode="normal" in2="effect3_dropShadow_91_65" result="effect4_dropShadow_91_65"/>
<feBlend mode="normal" in="SourceGraphic" in2="effect4_dropShadow_91_65" result="shape"/>
</filter>
</defs>
</svg>
