<svg width="24" height="24" viewBox="0 0 24 24" fill="none" xmlns="http://www.w3.org/2000/svg">
<path d="M5.00615 14.2276L5.00611 14.2276C4.60223 14.0603 4.32036 13.8414 4.16558 13.6346C4.03466 13.4597 3.97086 13.2705 4.01277 12.9958C4.03265 12.8655 4.10293 12.6789 4.29167 12.3832C4.42476 12.1747 4.52648 12.0374 4.64793 11.8736C4.74905 11.7372 4.86385 11.5823 5.02179 11.3525L5.02181 11.3525L5.02659 11.3455C5.93057 10.0141 5.97503 8.59311 5.97513 7.50014V7.5C5.97513 4.19097 8.66787 1.5 12 1.5C15.3322 1.5 18.0249 4.19097 18.0249 7.5V7.50014C18.025 8.59309 18.0694 10.0141 18.9734 11.3455L18.9734 11.3455L18.9782 11.3526C19.1361 11.5822 19.2509 11.7371 19.352 11.8735C19.4735 12.0374 19.5753 12.1747 19.7084 12.3832C19.8971 12.6789 19.9674 12.8655 19.9873 12.9958C20.0291 13.2705 19.9653 13.4597 19.8344 13.6346C19.6796 13.8413 19.3978 14.0603 18.9939 14.2276L18.9938 14.2276C14.8987 15.9241 9.10133 15.9241 5.00615 14.2276Z" stroke="black" stroke-width="3" stroke-linecap="round" stroke-linejoin="round"/>
<path d="M9 20C9.34387 21.1501 10.5566 22 12 22C13.4434 22 14.6561 21.1501 15 20" stroke="black" stroke-width="3" stroke-linecap="round" stroke-linejoin="round"/>
<circle cx="5.5" cy="5.5" r="4.5" fill="#FF4B4B"/>
</svg>
