<svg width="30" height="30" viewBox="0 0 30 30" fill="none" xmlns="http://www.w3.org/2000/svg">
<rect width="30" height="30" rx="10" fill="#333333"/>
<path d="M17.8539 18.521V11.8165C17.8539 11.8165 18.6081 13.0764 21.3341 13.154C21.3687 13.1546 21.4032 13.1483 21.4354 13.1355C21.4676 13.1226 21.4969 13.1035 21.5216 13.0791C21.5464 13.0548 21.566 13.0257 21.5794 12.9937C21.5928 12.9616 21.5997 12.9273 21.5997 12.8925V10.9973C21.5989 10.9296 21.5721 10.8648 21.5249 10.8164C21.4777 10.7679 21.4138 10.7396 21.3463 10.7371C19.2318 10.6166 18.2276 8.99168 18.1291 7.50095C18.1234 7.43401 18.0926 7.3717 18.0429 7.32659C17.9933 7.28147 17.9284 7.25691 17.8614 7.25784H15.7061C15.6719 7.25775 15.638 7.26443 15.6064 7.27751C15.5748 7.29058 15.5461 7.3098 15.5219 7.33404C15.4977 7.35827 15.4786 7.38706 15.4655 7.41875C15.4525 7.45043 15.4458 7.48438 15.4459 7.51866V18.1758C15.4459 19.3335 14.5626 20.3407 13.4075 20.3952C12.8587 20.4209 12.321 20.2342 11.9057 19.8737C11.4904 19.5132 11.2292 19.0064 11.1763 18.4583C11.1234 17.9101 11.2828 17.3626 11.6215 16.929C11.9601 16.4953 12.4522 16.2088 12.9958 16.1287C13.1773 16.1032 13.3612 16.1005 13.5434 16.1205C13.5801 16.1253 13.6173 16.1223 13.6527 16.1116C13.6881 16.1009 13.7209 16.0827 13.7487 16.0584C13.7766 16.0341 13.799 16.0041 13.8145 15.9704C13.8299 15.9367 13.838 15.9001 13.8383 15.8631V13.9637C13.839 13.8983 13.8149 13.8351 13.7709 13.7868C13.7269 13.7385 13.6662 13.7088 13.6012 13.7036C13.3248 13.6857 13.0474 13.6925 12.7722 13.724C11.9012 13.8266 11.0783 14.1793 10.4026 14.7397C9.72692 15.3002 9.2273 16.0445 8.9639 16.8829C8.7005 17.7214 8.68455 18.6183 8.91797 19.4657C9.15138 20.313 9.62421 21.0747 10.2795 21.6589C10.9348 22.2431 11.7447 22.625 12.6115 22.7586C13.4784 22.8922 14.3653 22.7718 15.1654 22.4119C15.9656 22.052 16.6449 21.4679 17.1215 20.73C17.5981 19.9921 17.8517 19.1318 17.8518 18.2527" fill="white"/>
</svg>
