<svg width="40" height="40" viewBox="0 0 40 40" fill="none" xmlns="http://www.w3.org/2000/svg">
<rect width="40" height="40" rx="10" fill="#333333"/>
<path d="M19.999 8.73247C14.3853 8.91441 9.74802 13.4611 9.46733 19.0711C9.36585 21.0935 9.81202 23.0053 10.6797 24.6647L9.46094 30.123C9.40974 30.3698 9.62824 30.5883 9.8751 30.5371L15.3334 29.3184H15.337C16.9855 30.1797 18.8771 30.6258 20.8849 30.5326C26.4858 30.2729 31.0472 25.6713 31.2638 20.0686C31.5089 13.7226 26.3359 8.52675 19.999 8.73247ZM20.3629 28.288C18.7757 28.288 17.289 27.8592 16.0109 27.1104C15.8902 27.0428 15.7741 26.9715 15.6607 26.8956L12.1736 27.8245L13.1025 24.3374C12.2221 22.9834 11.711 21.3697 11.711 19.6353C11.711 14.8655 15.593 10.9834 20.3629 10.9834C25.1327 10.9834 29.0147 14.8655 29.0147 19.6353C29.0147 24.4051 25.1327 28.288 20.3629 28.288Z" fill="white"/>
<path d="M25.4945 23.4443C25.3436 23.6701 25.1855 23.8822 24.9322 24.1346C24.3782 24.6886 23.6083 24.9684 22.8275 24.8889C21.4287 24.7453 19.441 23.9728 17.7322 22.2676C16.0234 20.5588 15.2509 18.5712 15.111 17.1723C15.0314 16.3915 15.3112 15.6226 15.8653 15.0677C16.1176 14.8153 16.3288 14.6562 16.5556 14.5017C16.9743 14.2192 17.5439 14.4076 17.7021 14.883L18.2753 16.6027C18.4335 17.0745 18.3622 17.3726 18.1583 17.5719L17.7021 18.0327C17.4753 18.2594 17.4378 18.6096 17.6115 18.8811C17.8639 19.277 18.3393 19.9106 19.2143 20.7856C20.0893 21.6605 20.7229 22.136 21.1187 22.3883C21.3903 22.562 21.7414 22.5236 21.9672 22.2978L22.428 21.8416C22.6282 21.6377 22.9263 21.5664 23.3971 21.7245L25.1169 22.2978C25.5923 22.456 25.7807 23.0256 25.4945 23.4443Z" fill="white"/>
</svg>
