<svg width="30" height="30" viewBox="0 0 30 30" fill="none" xmlns="http://www.w3.org/2000/svg">
<rect width="30" height="30" rx="10" fill="#333333"/>
<path d="M21.0606 8.70898H8.94142C8.36656 8.70898 7.81523 8.94082 7.40867 9.3535C7.00212 9.76618 6.77363 10.3259 6.77344 10.9096V18.6051C6.77344 18.8942 6.82952 19.1804 6.93848 19.4474C7.04744 19.7145 7.20714 19.9571 7.40847 20.1615C7.60979 20.3658 7.8488 20.5279 8.11183 20.6385C8.37485 20.749 8.65675 20.8059 8.94142 20.8058H21.0578C21.6326 20.8058 22.1838 20.5739 22.5903 20.1612C22.9967 19.7485 23.225 19.1888 23.225 18.6051V10.9096C23.2249 10.3265 22.9969 9.76735 22.5911 9.35477C22.1853 8.94219 21.6349 8.70994 21.0606 8.70898ZM16.9482 15.2887L13.5795 16.9979C13.4903 17.0437 13.391 17.0655 13.2912 17.0613C13.1913 17.057 13.0942 17.0269 13.0091 16.9737C12.9239 16.9205 12.8536 16.8461 12.8048 16.7575C12.7561 16.669 12.7305 16.5692 12.7304 16.4677V13.0478C12.7303 12.9462 12.7558 12.8464 12.8046 12.7577C12.8533 12.669 12.9236 12.5945 13.0087 12.5412C13.0939 12.488 13.1911 12.4578 13.291 12.4535C13.3909 12.4492 13.4903 12.471 13.5795 12.5168L16.9482 14.2275C17.0454 14.2766 17.1272 14.3523 17.1843 14.4461C17.2415 14.5398 17.2718 14.6478 17.2718 14.7581C17.2718 14.8683 17.2415 14.9764 17.1843 15.0701C17.1272 15.1638 17.0454 15.2395 16.9482 15.2887Z" fill="white"/>
</svg>
